<svg xmlns="http://www.w3.org/2000/svg" fill-rule="evenodd" stroke-linejoin="round" stroke-miterlimit="2" clip-rule="evenodd" viewBox="0 0 512 512"><path fill="#91ade2" fill-rule="nonzero" d="M501 256a250 250 0 11-501 0 250 250 0 01501 0z"/><path fill="#33599e" fill-rule="nonzero" d="M418 189h-91v-7c0-3 3-6 7-6h77c4 0 7 3 7 6v7z"/><path fill="#495969" fill-rule="nonzero" d="M250 507c81 0 152-38 198-96H53c46 58 117 96 197 96z"/><path fill="#426fc2" fill-rule="nonzero" d="M508 271l-68-75-2-2c-3-4-8-6-13-6H323v-80c0-9-7-17-16-17H62a249 249 0 00-28 291h4c5 0 9-3 10-8a49 49 0 0197 0c1 5 5 8 10 8h194c5 0 9-3 10-8a49 49 0 0197 0c1 5 5 8 10 8h25c12 0 21-9 21-20v-78c0-5-2-9-4-13z"/><path fill="#fab23d" fill-rule="nonzero" d="M508 271l-68-75-2-2c-3-4-8-6-13-6H323v194h26c5 0 9-3 10-8a49 49 0 0197 0c1 5 5 8 10 8h25c12 0 21-9 21-20v-78c0-5-2-9-4-13z"/><path fill="#364859" fill-rule="nonzero" d="M450 383a42 42 0 11-84 0 42 42 0 0184 0z"/><path fill="#495969" fill-rule="nonzero" d="M425 383a17 17 0 11-35 0 17 17 0 0135 0z"/><path fill="#364859" fill-rule="nonzero" d="M139 383a42 42 0 11-84 0 42 42 0 0184 0z"/><path fill="#495969" fill-rule="nonzero" d="M114 383a17 17 0 11-34 0 17 17 0 0134 0z"/><path fill="#91ade2" fill-rule="nonzero" d="M417 206h-68c-5 0-9 3-9 8v46c0 5 4 9 9 9h108c8 0 12-9 7-15l-40-45c-2-2-4-3-7-3z"/><path fill="#698cce" fill-rule="nonzero" d="M362 260v-46c0-5 4-8 8-8h47-68c-5 0-9 3-9 8v46c0 5 4 9 9 9h21c-4 0-8-4-8-9z"/><path fill="#182b32" fill-rule="nonzero" d="M365 293h-21a4 4 0 010-8h21a4 4 0 010 8z"/><path fill="#33599e" fill-rule="nonzero" d="M141 362c2 4 4 8 4 12 1 5 5 8 10 8h168v-20H141zM38 382c5 0 9-3 10-8l4-12H23l11 20h4z"/><path fill="#f39c12" fill-rule="nonzero" d="M323 382h26a10 10 0 005-1 10 10 0 005-7 50 50 0 013-10l1-2h-40v20z"/><g fill="#698cce" fill-rule="nonzero"><path d="M382 76v1c0 5 4 9 9 9h19a9 9 0 012 19h-60a13 13 0 100 25h54a10 10 0 010 19h-20c-5 0-9 4-9 9v2c0 5 4 9 9 9h99c-15-40-39-74-70-102h-24c-5 0-9 4-9 9zM187 73v-2c0-4-4-8-8-8h-19a9 9 0 010-18h50a12 12 0 000-24h-46c-35 13-66 34-92 60h107c4 0 8-4 8-8z"/></g></svg>