<?xml version="1.0" encoding="UTF-8" standalone="no"?>
<!-- Created with Inkscape (http://www.inkscape.org/) -->

<svg
   width="14.07908mm"
   height="8.4339161mm"
   viewBox="0 0 14.07908 8.4339162"
   version="1.1"
   id="svg5"
   inkscape:version="1.1.2 (b8e25be8, 2022-02-05)"
   sodipodi:docname="marteau_rot.svg"
   xmlns:inkscape="http://www.inkscape.org/namespaces/inkscape"
   xmlns:sodipodi="http://sodipodi.sourceforge.net/DTD/sodipodi-0.dtd"
   xmlns="http://www.w3.org/2000/svg"
   xmlns:svg="http://www.w3.org/2000/svg">
  <sodipodi:namedview
     id="namedview7"
     pagecolor="#505050"
     bordercolor="#eeeeee"
     borderopacity="1"
     inkscape:pageshadow="0"
     inkscape:pageopacity="0"
     inkscape:pagecheckerboard="0"
     inkscape:document-units="mm"
     showgrid="false"
     inkscape:zoom="3.9516771"
     inkscape:cx="68.831534"
     inkscape:cy="27.077111"
     inkscape:window-width="1269"
     inkscape:window-height="740"
     inkscape:window-x="171"
     inkscape:window-y="25"
     inkscape:window-maximized="0"
     inkscape:current-layer="layer1" />
  <defs
     id="defs2" />
  <g
     inkscape:label="Calque 1"
     inkscape:groupmode="layer"
     id="layer1"
     transform="translate(-110.08014,-118.11362)">
    <path
       style="fill:#1a1a1a;fill-opacity:1;stroke-width:0.0293568"
       d="m 123.68365,124.94161 c -0.0624,0.0276 -0.16537,0.0579 -0.22878,0.0675 -0.12999,0.0198 -0.10882,0.0219 -2.47169,-0.25203 -0.95075,-0.11023 -1.90196,-0.21901 -2.11383,-0.24175 -0.21182,-0.0228 -0.67394,-0.075 -1.02681,-0.11627 -0.58759,-0.0686 -1.69626,-0.19577 -2.49633,-0.28632 -0.17686,-0.02 -0.48479,-0.0554 -0.68428,-0.0786 -0.19946,-0.0233 -0.48518,-0.055 -0.6349,-0.0707 l -0.27219,-0.0285 -0.003,-0.92451 -0.003,-0.92451 0.29475,0.0208 c 0.16212,0.0114 0.61981,0.0377 1.01708,0.0584 0.39726,0.0207 0.88634,0.0475 1.08686,0.0595 0.20053,0.0119 0.53709,0.0318 0.74796,0.0439 0.21089,0.0122 0.52832,0.0305 0.70539,0.0408 0.17707,0.0103 0.94605,0.0526 1.70883,0.0941 4.44236,0.24158 4.03594,0.21279 4.24153,0.30063 0.24024,0.10218 0.45626,0.33577 0.54306,0.58555 0.0579,0.16688 0.0855,0.78599 0.0473,1.06127 -0.0322,0.23213 -0.23374,0.49122 -0.4581,0.5905 z m -11.31772,1.59847 c -0.0896,0.041 -1.91106,-0.0978 -2.06204,-0.15712 -0.18124,-0.0713 -0.21061,-0.17268 -0.21704,-0.75099 -0.007,-0.59787 0.0236,-0.70408 0.21088,-0.74 0.26223,-0.0503 0.26041,-0.0494 0.31507,-0.14693 0.11895,-0.21179 0.0959,-0.52198 -0.0502,-0.6811 -0.0501,-0.0546 -0.12561,-0.0988 -0.20715,-0.12097 -0.14534,-0.0402 -0.21242,-0.10093 -0.25125,-0.22776 -0.0147,-0.0483 -0.0255,-0.52217 -0.0239,-1.05311 0.003,-1.09053 0.0329,-1.27284 0.28479,-1.75705 0.59046,-1.13521 1.49333,-2.16894 2.22166,-2.54371 0.40923,-0.21058 0.82346,-0.30757 0.89296,-0.20908 l 0.0397,0.0564 -0.4307,0.38285 c -0.35895,0.31954 -0.46294,0.42711 -0.62632,0.64759 -0.33141,0.44735 -0.50165,0.84899 -0.54616,1.28797 -0.0226,0.22324 0.0347,0.59737 0.11847,0.77302 0.11059,0.23193 0.34737,0.39437 0.57678,0.39573 0.33708,0.002 0.48907,0.0984 0.50903,0.32295 0.0176,0.1979 0.0206,1.77786 0.004,1.89809 -0.0295,0.20824 -0.14626,0.25589 -0.54546,0.22143 -0.34073,-0.0293 -0.47613,-0.0208 -0.53528,0.0336 -0.0959,0.0883 -0.15086,0.38527 -0.10141,0.54789 0.0565,0.18572 0.14382,0.27835 0.29634,0.31455 0.13731,0.0324 0.22796,0.11518 0.26742,0.24558 0.0319,0.10492 0.0315,1.10459 -5.6e-4,1.13409 -0.012,0.0115 -0.0309,0.0363 -0.0415,0.055 -0.0102,0.0192 -0.0549,0.051 -0.0985,0.0711 z"
       id="path211" />
  </g>
</svg>
