<?xml version="1.0" encoding="UTF-8" standalone="no"?>
<!-- Created with Inkscape (http://www.inkscape.org/) -->

<svg
   width="8.9776812mm"
   height="13.961693mm"
   viewBox="0 0 8.9776812 13.961693"
   version="1.1"
   id="svg5"
   inkscape:version="1.1.2 (b8e25be8, 2022-02-05)"
   sodipodi:docname="marteau.svg"
   xmlns:inkscape="http://www.inkscape.org/namespaces/inkscape"
   xmlns:sodipodi="http://sodipodi.sourceforge.net/DTD/sodipodi-0.dtd"
   xmlns="http://www.w3.org/2000/svg"
   xmlns:svg="http://www.w3.org/2000/svg">
  <sodipodi:namedview
     id="namedview7"
     pagecolor="#505050"
     bordercolor="#eeeeee"
     borderopacity="1"
     inkscape:pageshadow="0"
     inkscape:pageopacity="0"
     inkscape:pagecheckerboard="0"
     inkscape:document-units="mm"
     showgrid="false"
     inkscape:zoom="0.8419313"
     inkscape:cx="283.87114"
     inkscape:cy="48.69756"
     inkscape:window-width="1269"
     inkscape:window-height="740"
     inkscape:window-x="171"
     inkscape:window-y="25"
     inkscape:window-maximized="0"
     inkscape:current-layer="layer1" />
  <defs
     id="defs2" />
  <g
     inkscape:label="Calque 1"
     inkscape:groupmode="layer"
     id="layer1"
     transform="translate(-111.97678,-117.34528)">
    <path
       style="fill:#1a1a1a;fill-opacity:1;stroke-width:0.0293568"
       d="m 118.98633,131.11765 c -0.0516,-0.0447 -0.12289,-0.1249 -0.15864,-0.17814 -0.0733,-0.10916 -0.0662,-0.0891 -0.82584,-2.34324 -0.30565,-0.907 -0.61281,-1.81381 -0.68257,-2.01515 -0.0697,-0.20132 -0.21946,-0.64161 -0.33262,-0.97838 -0.18846,-0.56076 -0.54612,-1.61783 -0.80533,-2.38014 -0.0573,-0.16851 -0.15658,-0.46214 -0.22062,-0.65249 -0.064,-0.19034 -0.15709,-0.46233 -0.20679,-0.60443 l -0.0903,-0.25834 0.83505,-0.39677 0.83505,-0.39674 0.1069,0.27547 c 0.0588,0.15151 0.23014,0.57673 0.38077,0.94492 0.15062,0.36819 0.33493,0.822 0.40957,1.00849 0.0747,0.18648 0.20026,0.49937 0.27915,0.69531 0.0789,0.19595 0.19763,0.49091 0.26385,0.65546 0.0662,0.16455 0.35577,0.87818 0.64346,1.58584 1.6755,4.12137 1.52827,3.74146 1.53646,3.96488 0.01,0.26087 -0.10919,0.55587 -0.29812,0.74088 -0.12626,0.12354 -0.67453,0.41244 -0.93983,0.49524 -0.22372,0.0698 -0.54399,-0.002 -0.72945,-0.16262 z m -6.27128,-9.55599 c -0.0753,-0.0636 -0.72634,-1.77035 -0.73703,-1.93222 -0.0128,-0.19433 0.0664,-0.26413 0.58677,-0.51651 0.53796,-0.26096 0.64693,-0.27887 0.75928,-0.12475 0.15728,0.21576 0.15573,0.21448 0.26724,0.22235 0.24229,0.0173 0.51305,-0.13579 0.59469,-0.33581 0.028,-0.0686 0.0358,-0.15574 0.0211,-0.23895 -0.0256,-0.14861 7.3e-4,-0.23518 0.0989,-0.32438 0.0374,-0.0339 0.46144,-0.24573 0.94242,-0.4706 0.98788,-0.4619 1.16539,-0.51289 1.71077,-0.49152 1.2786,0.0501 2.59861,0.42606 3.24814,0.92509 0.36496,0.28039 0.6293,0.61373 0.56984,0.71859 l -0.0341,0.06 -0.52994,-0.22636 c -0.44208,-0.18846 -0.58372,-0.23666 -0.85282,-0.29044 -0.54595,-0.10905 -0.98184,-0.0918 -1.39789,0.0551 -0.21159,0.0747 -0.52556,0.28609 -0.64874,0.43674 -0.16264,0.19892 -0.20862,0.48236 -0.11204,0.69045 0.14191,0.30576 0.11949,0.48436 -0.0751,0.59814 -0.17152,0.10028 -1.59941,0.77659 -1.71541,0.81248 -0.20094,0.0621 -0.29383,-0.0232 -0.43286,-0.39899 -0.11874,-0.32071 -0.18416,-0.43956 -0.25863,-0.46985 -0.12076,-0.0491 -0.41282,0.0278 -0.53884,0.14187 -0.1439,0.13029 -0.19046,0.24876 -0.15818,0.40216 0.0292,0.13804 -0.007,0.25531 -0.10813,0.3466 -0.0813,0.0736 -0.98574,0.49943 -1.02608,0.48302 -0.0155,-0.006 -0.046,-0.0125 -0.0675,-0.0141 -0.0217,-0.001 -0.0695,-0.0279 -0.10636,-0.0588 z"
       id="path211" />
  </g>
</svg>
