<?xml version="1.0" encoding="UTF-8" standalone="no"?>
<!-- Created with Inkscape (http://www.inkscape.org/) -->

<svg
   width="12.35558mm"
   height="12.49224mm"
   viewBox="0 0 12.35558 12.49224"
   version="1.1"
   id="svg5"
   inkscape:version="1.1.2 (b8e25be8, 2022-02-05)"
   sodipodi:docname="marteau_skin.svg"
   xmlns:inkscape="http://www.inkscape.org/namespaces/inkscape"
   xmlns:sodipodi="http://sodipodi.sourceforge.net/DTD/sodipodi-0.dtd"
   xmlns="http://www.w3.org/2000/svg"
   xmlns:svg="http://www.w3.org/2000/svg">
  <sodipodi:namedview
     id="namedview7"
     pagecolor="#505050"
     bordercolor="#eeeeee"
     borderopacity="1"
     inkscape:pageshadow="0"
     inkscape:pageopacity="0"
     inkscape:pagecheckerboard="0"
     inkscape:document-units="mm"
     showgrid="false"
     inkscape:zoom="1.4791428"
     inkscape:cx="203.83428"
     inkscape:cy="79.775938"
     inkscape:window-width="1440"
     inkscape:window-height="900"
     inkscape:window-x="0"
     inkscape:window-y="0"
     inkscape:window-maximized="0"
     inkscape:current-layer="layer1" />
  <defs
     id="defs2" />
  <g
     inkscape:label="Calque 1"
     inkscape:groupmode="layer"
     id="layer1"
     transform="translate(-132.75713,-114.62558)">
    <path
       style="fill:#1a1a1a;fill-opacity:1;stroke-width:0.0293568"
       d="m 143.61349,127.08149 c -0.0646,-0.022 -0.16089,-0.0694 -0.21407,-0.10524 -0.10902,-0.0735 -0.0949,-0.0576 -1.64788,-1.85937 -0.62487,-0.72498 -1.25107,-1.44923 -1.39155,-1.60944 -0.14049,-0.16021 -0.44503,-0.51164 -0.67675,-0.78095 -0.38585,-0.44842 -1.11545,-1.29282 -1.64279,-1.90128 -0.11658,-0.13451 -0.31917,-0.36908 -0.45021,-0.52127 -0.13103,-0.15219 -0.31971,-0.36907 -0.41929,-0.48197 l -0.18103,-0.20526 0.62401,-0.68216 0.62401,-0.68215 0.20282,0.2149 c 0.11155,0.11819 0.43048,0.44751 0.70874,0.7318 0.27825,0.2843 0.61997,0.63523 0.75937,0.77984 0.1394,0.14461 0.37366,0.38711 0.52057,0.53889 0.14692,0.15178 0.36803,0.38026 0.49137,0.50774 0.12333,0.12747 0.66044,0.6794 1.19356,1.2265 3.10491,3.18632 2.82539,2.88988 2.91716,3.09375 0.10716,0.23803 0.1083,0.55604 0.003,0.79861 -0.0704,0.162 -0.46942,0.63619 -0.68396,0.81285 -0.18092,0.14897 -0.5045,0.2035 -0.73696,0.12421 z m -9.40968,-6.48875 c -0.0937,-0.0305 -1.33985,-1.36619 -1.41074,-1.51211 -0.0851,-0.17518 -0.038,-0.26969 0.3489,-0.69953 0.39999,-0.44443 0.49418,-0.50208 0.65632,-0.40164 0.22699,0.1406 0.22507,0.13999 0.33132,0.10526 0.23088,-0.0755 0.42407,-0.31909 0.42433,-0.53512 9e-5,-0.0741 -0.0255,-0.15777 -0.0701,-0.22942 -0.0797,-0.12801 -0.0879,-0.21814 -0.0306,-0.33774 0.0218,-0.0455 0.33485,-0.40149 0.69564,-0.79102 0.74104,-0.80007 0.88625,-0.91419 1.39949,-1.09989 1.20324,-0.43534 2.56763,-0.58447 3.35732,-0.36696 0.44371,0.12221 0.81416,0.33139 0.79859,0.45093 l -0.009,0.0684 -0.57618,-0.01 c -0.4805,-0.008 -0.62986,7.2e-4 -0.8994,0.0523 -0.54678,0.10473 -0.94408,0.28487 -1.27412,0.57772 -0.16784,0.14893 -0.37903,0.46303 -0.43636,0.64899 -0.0757,0.24554 -0.0115,0.52542 0.15636,0.68178 0.24666,0.22976 0.29319,0.40364 0.15582,0.58235 -0.12109,0.15752 -1.18891,1.322 -1.28285,1.39895 -0.16271,0.13329 -0.28098,0.089 -0.55129,-0.20649 -0.23083,-0.25234 -0.33621,-0.33777 -0.4166,-0.33777 -0.13037,0 -0.37194,0.18128 -0.44567,0.33445 -0.0842,0.1749 -0.0827,0.30218 0.005,0.43211 0.079,0.11689 0.0893,0.23931 0.0304,0.36181 -0.0475,0.0988 -0.72491,0.83404 -0.76846,0.83404 -0.0167,0 -0.0472,0.006 -0.0678,0.0127 -0.0206,0.007 -0.0749,3.6e-4 -0.12069,-0.0144 z"
       id="path211" />
  </g>
</svg>
